# xmcd
#
# Track frame offsets:
#	190
#	9462
#	31757
#	62700
#	87247
#	107257
#	126885
#	148665
#	167602
#	177925
#	196290
#	227622
#	248472
#	274062
#	294195
#	321525
#	337912
#
# Disc length: 4702 seconds
#
# Revision: 3
# Processed by: cddbd v1.5.1PL0 Copyright (c) Steve Scherf et al.
# Submitted via: EasyCDDAExtractor 6.2.0.3
#
DISCID=de125c11
DTITLE=Butch Hancock - Own And Own
DYEAR=1991
DGENRE=Country
TTITLE0=Dry Land Farm
TTITLE1=Wind's Dominion
TTITLE2=Diamond Hill
TTITLE3=1981: A Spare Odyssey
TTITLE4=Firewater (Seeks Its Own Level)
TTITLE5=West Texas Waltz
TTITLE6=Horseflies
TTITLE7=If You Were A Bluebird
TTITLE8=Own And Own
TTITLE9=Fools Fall In Love
TTITLE10=Yella Rose
TTITLE11=Like A Kiss On The Mouth
TTITLE12=The Ghost Of Give-And-Take Avenue
TTITLE13=Tell Me What You Want To Know
TTITLE14=Just A Storm
TTITLE15=Just Tell Me That
TTITLE16=When Will You Hold Me Again?
EXTD=Demon Records  FIEND CD 150
EXTT0=
EXTT1=
EXTT2=
EXTT3=
EXTT4=
EXTT5=
EXTT6=
EXTT7=
EXTT8=
EXTT9=
EXTT10=
EXTT11=
EXTT12=
EXTT13=* New Recordings with The Sunspots (1989)
EXTT14=* New Recordings with The Sunspots (1989)
EXTT15=* New Recordings with The Sunspots (1989)
EXTT16=* New Recordings with The Sunspots (1989)
PLAYORDER=
